<svg xmlns="http://www.w3.org/2000/svg" width="512" viewBox="0 0 64 64" height="512"><path fill="#e6e9ed" d="M12 10h50v32H12z"/><path fill="#ff826e" d="M53 42H30c0-3.86 1.57-7.36 4.1-9.9.88-.87 1.87-1.63 2.95-2.25L40 37l4-4 4 4 2.95-7.15C55.16 32.26 58 36.8 58 42z"/><path fill="#fcd770" d="M50.95 29.85L48 37l-4-4 4.32-4.32c.92.3 1.8.69 2.63 1.17zM44 33l-4 4-2.95-7.15c.83-.48 1.71-.87 2.63-1.17z"/><path fill="#4fc1e9" d="M7 62H2c0-3.86 1.57-7.36 4.1-9.9.88-.87 1.87-1.63 2.95-2.25l3.68 6.42L16 62zM25 62h-9l3.27-5.73 3.68-6.42C27.16 52.26 30 56.8 30 62z"/><path fill="#e6e9ed" d="M22.95 49.85l-3.68 6.42L16 53l4.32-4.32c.92.3 1.8.69 2.63 1.17zM16 53l-3.27 3.27-3.68-6.42c.83-.48 1.71-.87 2.63-1.17z"/><path fill="#ccd1d9" d="M19.27 56.27L16 62l-3.27-5.73L16 53z"/><path fill="#fcd770" d="M12 2h50v8H12z"/><path fill="#ffeaa7" d="M54 52v8c0 1.1-.9 2-2 2H36c-1.1 0-2-.9-2-2v-8c0-1.1.9-2 2-2h2v-4l6 4h8c1.1 0 2 .9 2 2z"/><g fill="#f0d0b4"><circle r="7" cy="21" cx="44"/><path d="M48.32 28.68L44 33l-4.32-4.32c1.36-.44 2.81-.68 4.32-.68s2.96.24 4.32.68zM23 41c0 .34-.02.68-.08 1-.48 3.4-3.39 6-6.92 6-3.87 0-7-3.13-7-7 0-2.38 1.18-4.48 3-5.74A6.89 6.89 0 0116 34c3.87 0 7 3.13 7 7z"/></g><path fill="#ffeaa7" d="M22 16v8c0 1.1-.9 2-2 2h-2v4l-6-4H4c-1.1 0-2-.9-2-2v-8c0-1.1.9-2 2-2h16c1.1 0 2 .9 2 2z"/><path fill="#f0d0b4" d="M20.32 48.68L16 53l-4.32-4.32c1.36-.44 2.81-.68 4.32-.68s2.96.24 4.32.68z"/><path d="M11 1v12H4c-1.654 0-3 1.346-3 3v8c0 1.654 1.346 3 3 3h7v7.765A7.984 7.984 0 008 41a7.996 7.996 0 003.585 6.665C5.462 49.555 1 55.265 1 62v1h30v-1c0-6.735-4.462-12.445-10.585-14.335A8.02 8.02 0 0023.737 43H63V1zm50 2v6H13V3zM3 24v-8c0-.551.448-1 1-1h16c.552 0 1 .449 1 1v8c0 .551-.448 1-1 1h-3v3.131L12.303 25H4c-.552 0-1-.449-1-1zm15.365 25.221L16 51.586l-2.365-2.365C14.403 49.08 15.192 49 16 49s1.597.08 2.365.221zm-7.921 1.041c.321-.153.648-.294.983-.421L14.586 53l-1.64 1.64zM16 54.414l2.026 2.026L16 59.985l-2.026-3.545zm3.054.226L17.414 53l3.159-3.159c.335.126.662.268.983.421zM8.709 51.256L14.277 61H8v-4H6v4H3.038c.31-4.051 2.491-7.578 5.671-9.744zM28.962 61H26v-4h-2v4h-6.277l5.568-9.744c3.18 2.166 5.361 5.693 5.671 9.744zM16 47c-3.309 0-6-2.691-6-6s2.691-6 6-6 6 2.691 6 6-2.691 6-6 6zm22-26c0-3.309 2.691-6 6-6s6 2.691 6 6-2.691 6-6 6-6-2.691-6-6zm6 8c.807 0 1.594.084 2.361.225L44 31.586l-2.361-2.361A13.032 13.032 0 0144 29zm4.569.845c.376.142.742.3 1.1.475l-2.023 4.913L45.414 33zm-9.138 0L42.586 33l-2.232 2.232-2.023-4.913c.358-.174.724-.332 1.1-.474zm-2.845 1.491l3.06 7.432L44 34.414l4.354 4.354 3.06-7.432A12.99 12.99 0 0156.949 41H54v-4h-2v4H36v-4h-2v4h-2.949a12.99 12.99 0 015.535-9.664zM58.949 41c-.418-6.294-4.718-11.54-10.534-13.335A7.996 7.996 0 0052 21c0-4.411-3.589-8-8-8s-8 3.589-8 8a7.996 7.996 0 003.585 6.665C33.769 29.46 29.469 34.706 29.051 41H24c0-4.411-3.589-8-8-8a7.945 7.945 0 00-3 .589v-5.72l6 4V27h1c1.654 0 3-1.346 3-3v-8c0-1.654-1.346-3-3-3h-7v-2h48v30z"/><path d="M15 5h2v2h-2zM19 5h2v2h-2zM23 5h2v2h-2zM5 17h14v2H5zM5 21h10v2H5zM17 21h2v2h-2zM37 57h10v2H37zM49 57h2v2h-2zM37 53h14v2H37z"/><path d="M52 49h-7.697L37 44.132V49h-1c-1.654 0-3 1.346-3 3v8c0 1.654 1.346 3 3 3h16c1.654 0 3-1.346 3-3v-8c0-1.654-1.346-3-3-3zm1 11a1 1 0 01-1 1H36a1 1 0 01-1-1v-8a1 1 0 011-1h3v-3.132L43.697 51H52a1 1 0 011 1zM57 13h2v2h-2zM57 17h2v2h-2zM57 21h2v2h-2zM25 13h2v2h-2zM29 13h2v2h-2zM33 13h2v2h-2z"/></svg>